# xmcd
#
# Track frame offsets: 
#        150
#        15207
#        33059
#        45976
#
# Disc length: 871 seconds
#
# Revision: 0
# Processed by: cddbd v1.5.2PL0 Copyright (c) Steve Scherf et al.
# Submitted via: ExactAudioCopy v0.99pb5
#
DISCID=18036504
DTITLE=Wooden Horse - You're In My Heart 
DYEAR=2013
DGENRE=Blues
TTITLE0=You're In My Heart
TTITLE1=He Was A Friend Of Mine
TTITLE2=Mean Old Frisco
TTITLE3=Lonesome River
EXTD=
EXTT0=
EXTT1=
EXTT2=
EXTT3=
PLAYORDER=
